<svg aria-hidden="true" style="position: absolute; width: 0; height: 0; overflow: hidden;" version="1.1" xmlns="http://www.w3.org/2000/svg" xmlns:xlink="http://www.w3.org/1999/xlink">
    <defs>
        <symbol id="icon-menu-closed" viewBox="0 0 55 32">
            <path stroke="currentColor" stroke-linejoin="miter" stroke-linecap="butt" stroke-miterlimit="4" stroke-width="1.8824" d="M0 0.941h54.588"></path>
            <path stroke="currentColor" stroke-linejoin="miter" stroke-linecap="butt" stroke-miterlimit="4" stroke-width="1.8824" d="M26.353 16h28.235"></path>
            <path stroke="currentColor" stroke-linejoin="miter" stroke-linecap="butt" stroke-miterlimit="4" stroke-width="1.8824" d="M0 31.059h54.588"></path>
        </symbol>
        <symbol id="icon-menu-open" viewBox="0 0 55 32">
            <path stroke="currentColor" stroke-linejoin="miter" stroke-linecap="butt" stroke-miterlimit="4" stroke-width="1.8824" d="M0 0.941h54.588"></path>
            <path stroke="currentColor" stroke-linejoin="miter" stroke-linecap="butt" stroke-miterlimit="4" stroke-width="1.8824" d="M0 16h54.588"></path>
            <path stroke="currentColor" stroke-linejoin="miter" stroke-linecap="butt" stroke-miterlimit="4" stroke-width="1.8824" d="M0 31.059h54.588"></path>
        </symbol>
        <symbol id="icon-arrow-back" viewBox="0 0 32 32">
            <path stroke="currentColor" d="M25.333 17.333h-16.333l7 7-0.88 1-8.667-8.667 8.667-8.667 0.88 1-7 7h16.333v1.333z"></path>
            <path stroke="currentColor" stroke-linejoin="miter" stroke-linecap="butt" stroke-miterlimit="4" stroke-width="1.0667" d="M10.667 0.533h10.667c5.596 0 10.133 4.537 10.133 10.133v10.667c0 5.596-4.537 10.133-10.133 10.133h-10.667c-5.596 0-10.133-4.537-10.133-10.133v-10.667c0-5.596 4.537-10.133 10.133-10.133z"></path>
        </symbol>
        <symbol id="icon-instagram-logo" viewBox="0 0 32 32">
            <path stroke="currentColor" stroke-linejoin="miter" stroke-linecap="butt" stroke-miterlimit="4" stroke-width="1.3913" d="M16 0.696c8.452 0 15.304 6.852 15.304 15.304s-6.852 15.304-15.304 15.304c-8.452 0-15.304-6.852-15.304-15.304s6.852-15.304 15.304-15.304z"></path>
            <path stroke="currentColor" stroke-linejoin="miter" stroke-linecap="butt" stroke-miterlimit="4" stroke-width="1.3913" d="M20.87 10.435h1.391M11.826 6.261h8.348c1.476 0 2.892 0.586 3.935 1.63s1.63 2.459 1.63 3.935v8.348c0 1.476-0.586 2.892-1.63 3.935s-2.459 1.63-3.935 1.63h-8.348c-1.476 0-2.892-0.586-3.935-1.63s-1.63-2.459-1.63-3.935v-8.348c0-1.476 0.586-2.892 1.63-3.935s2.459-1.63 3.935-1.63zM16 20.174c-1.107 0-2.169-0.44-2.951-1.223s-1.223-1.844-1.223-2.951c0-1.107 0.44-2.169 1.223-2.951s1.844-1.223 2.951-1.223c1.107 0 2.169 0.44 2.951 1.223s1.223 1.844 1.223 2.951c0 1.107-0.44 2.169-1.223 2.951s-1.844 1.223-2.951 1.223z"></path>
        </symbol>
        <symbol id="icon-closed" viewBox="0 0 32 32">
            <path stroke="currentColor" stroke-linejoin="miter" stroke-linecap="butt" stroke-miterlimit="4" stroke-width="0.8" d="M8 0.4h16c4.197 0 7.6 3.403 7.6 7.6v16c0 4.197-3.403 7.6-7.6 7.6h-16c-4.197 0-7.6-3.403-7.6-7.6v-16c0-4.197 3.403-7.6 7.6-7.6z"></path>
            <path stroke="currentColor" stroke-linejoin="miter" stroke-linecap="butt" stroke-miterlimit="4" stroke-width="0.8" d="M10.626 10.060l11.314 11.314"></path>
            <path stroke="currentColor" stroke-linejoin="miter" stroke-linecap="butt" stroke-miterlimit="4" stroke-width="0.8" d="M21.94 10.626l-11.314 11.314"></path>
        </symbol> 
        <symbol id="icon-facebook-logo" viewBox="0 0 32 32">
            <path stroke="currentColor" stroke-linejoin="miter" stroke-linecap="round" stroke-miterlimit="4" stroke-width="1.28" d="M13.005 30.037c1.609 0.267 3.25 0.268 4.859 0.003M13.005 30.037c-3.455-0.577-6.596-2.361-8.859-5.034s-3.506-6.063-3.505-9.566c0.001-2.823 0.809-5.588 2.329-7.967s3.69-4.274 6.252-5.46c2.562-1.186 5.41-1.615 8.208-1.236s5.429 1.551 7.582 3.377c2.153 1.826 3.74 4.23 4.572 6.928s0.875 5.578 0.124 8.299c-0.751 2.722-2.265 5.172-4.364 7.061s-4.693 3.139-7.478 3.601M13.005 30.037l-0.002-8.008h-3.035c-0.255 0-0.499-0.101-0.679-0.281s-0.281-0.424-0.281-0.679v-2.941c0-0.255 0.101-0.499 0.281-0.679s0.424-0.281 0.679-0.281h3.035v-5.011c0-1.273 0.506-2.494 1.406-3.394s2.121-1.406 3.394-1.406h2.896c0.424 0 0.831 0.169 1.131 0.469s0.469 0.707 0.469 1.131v1.664c0 0.424-0.169 0.831-0.469 1.131s-0.707 0.469-1.131 0.469h-1.235c-0.424 0-0.831 0.169-1.131 0.469s-0.469 0.707-0.469 1.131v3.347h3.675c0.139 0 0.277 0.030 0.403 0.089s0.239 0.144 0.329 0.25c0.090 0.106 0.156 0.231 0.193 0.365s0.045 0.275 0.022 0.413l-0.4 2.406c-0.062 0.374-0.255 0.713-0.544 0.958s-0.655 0.38-1.034 0.38h-2.645v8.011"></path>
        </symbol>
        <symbol id="icon-telegram-logo" viewBox="0 0 32 32">
            <path stroke="currentColor" stroke-linejoin="round" stroke-linecap="round" stroke-miterlimit="4" stroke-width="1.3333" d="M5.208 15.747c-0.068 0.027-0.127 0.073-0.169 0.134s-0.064 0.132-0.065 0.206c0 0.147 0.097 0.286 0.234 0.338l4.315 1.574 8.889-4.589c0.047-0.022 0.1-0.027 0.15-0.013s0.094 0.043 0.124 0.085c0.028 0.043 0.041 0.095 0.035 0.147s-0.029 0.099-0.067 0.135l-6.38 5.623 7.101 5.139c0.097 0.069 0.227 0.087 0.338 0.046 0.056-0.021 0.105-0.055 0.145-0.1s0.067-0.098 0.081-0.156l3.55-14.931c0.015-0.064 0.013-0.131-0.007-0.193s-0.056-0.119-0.106-0.162c-0.049-0.043-0.109-0.073-0.174-0.084s-0.131-0.006-0.193 0.018l-17.801 6.783z"></path>
            <path stroke="currentColor" stroke-linejoin="round" stroke-linecap="butt" stroke-miterlimit="4" stroke-width="1.3333" d="M0.667 15.833c0 4.022 1.598 7.88 4.442 10.724s6.702 4.442 10.724 4.442c4.022 0 7.88-1.598 10.724-4.442s4.442-6.702 4.442-10.724c0-4.022-1.598-7.88-4.442-10.724s-6.702-4.442-10.724-4.442c-4.022 0-7.88 1.598-10.724 4.442s-4.442 6.702-4.442 10.724z"></path>
        </symbol>
    </defs>
</svg>
